<svg xmlns="http://www.w3.org/2000/svg" width="896" height="384" viewBox="0 0 56 24" style="stroke-width: 0px; background-color: none">
<g fill="#00000000">
<rect x="55" y="0" width="1" height="1"/>
<rect x="55" y="1" width="1" height="1"/>
<rect x="55" y="10" width="1" height="1"/>
<rect x="55" y="11" width="1" height="1"/>
<rect x="55" y="12" width="1" height="1"/>
<rect x="55" y="13" width="1" height="1"/>
<rect x="55" y="14" width="1" height="1"/>
<rect x="55" y="15" width="1" height="1"/>
<rect x="55" y="16" width="1" height="1"/>
<rect x="55" y="17" width="1" height="1"/>
<rect x="55" y="18" width="1" height="1"/>
<rect x="55" y="19" width="1" height="1"/>
<rect x="55" y="2" width="1" height="1"/>
<rect x="55" y="20" width="1" height="1"/>
<rect x="55" y="21" width="1" height="1"/>
<rect x="55" y="22" width="1" height="1"/>
<rect x="55" y="23" width="1" height="1"/>
<rect x="55" y="3" width="1" height="1"/>
<rect x="55" y="4" width="1" height="1"/>
<rect x="55" y="5" width="1" height="1"/>
<rect x="55" y="6" width="1" height="1"/>
<rect x="55" y="7" width="1" height="1"/>
<rect x="55" y="8" width="1" height="1"/>
<rect x="55" y="9" width="1" height="1"/>
</g>
<g fill="#000000ff">
<rect x="1" y="1" width="4" height="1"/>
<rect x="1" y="18" width="1" height="1"/>
<rect x="1" y="2" width="3" height="1"/>
<rect x="1" y="20" width="1" height="1"/>
<rect x="1" y="3" width="4" height="1"/>
<rect x="1" y="4" width="1" height="1"/>
<rect x="10" y="19" width="3" height="1"/>
<rect x="10" y="3" width="2" height="1"/>
<rect x="10" y="4" width="1" height="1"/>
<rect x="10" y="6" width="1" height="1"/>
<rect x="11" y="11" width="1" height="1"/>
<rect x="11" y="18" width="1" height="1"/>
<rect x="12" y="2" width="1" height="1"/>
<rect x="13" y="10" width="1" height="1"/>
<rect x="13" y="11" width="1" height="1"/>
<rect x="13" y="12" width="1" height="1"/>
<rect x="16" y="0" width="7" height="1"/>
<rect x="16" y="1" width="1" height="1"/>
<rect x="16" y="19" width="4" height="1"/>
<rect x="16" y="2" width="1" height="1"/>
<rect x="16" y="3" width="1" height="1"/>
<rect x="16" y="4" width="1" height="1"/>
<rect x="16" y="5" width="2" height="1"/>
<rect x="16" y="6" width="1" height="1"/>
<rect x="17" y="12" width="2" height="1"/>
<rect x="17" y="13" width="1" height="1"/>
<rect x="18" y="11" width="4" height="1"/>
<rect x="18" y="4" width="1" height="1"/>
<rect x="18" y="9" width="4" height="1"/>
<rect x="19" y="10" width="3" height="1"/>
<rect x="19" y="17" width="3" height="1"/>
<rect x="19" y="20" width="1" height="1"/>
<rect x="19" y="21" width="1" height="1"/>
<rect x="19" y="22" width="1" height="1"/>
<rect x="19" y="5" width="1" height="1"/>
<rect x="2" y="13" width="3" height="1"/>
<rect x="2" y="17" width="3" height="1"/>
<rect x="2" y="21" width="3" height="1"/>
<rect x="2" y="9" width="3" height="1"/>
<rect x="20" y="2" width="1" height="1"/>
<rect x="20" y="6" width="1" height="1"/>
<rect x="21" y="1" width="1" height="1"/>
<rect x="21" y="12" width="1" height="1"/>
<rect x="21" y="18" width="1" height="1"/>
<rect x="21" y="19" width="1" height="1"/>
<rect x="21" y="3" width="1" height="1"/>
<rect x="21" y="5" width="1" height="1"/>
<rect x="22" y="4" width="1" height="1"/>
<rect x="25" y="1" width="4" height="1"/>
<rect x="25" y="10" width="3" height="1"/>
<rect x="25" y="11" width="4" height="1"/>
<rect x="25" y="12" width="1" height="1"/>
<rect x="25" y="2" width="1" height="1"/>
<rect x="25" y="3" width="4" height="1"/>
<rect x="25" y="4" width="1" height="1"/>
<rect x="25" y="9" width="4" height="1"/>
<rect x="26" y="18" width="3" height="1"/>
<rect x="26" y="20" width="3" height="1"/>
<rect x="27" y="12" width="1" height="1"/>
<rect x="27" y="17" width="1" height="1"/>
<rect x="27" y="2" width="1" height="1"/>
<rect x="27" y="21" width="1" height="1"/>
<rect x="27" y="4" width="3" height="1"/>
<rect x="28" y="13" width="1" height="1"/>
<rect x="28" y="5" width="1" height="1"/>
<rect x="29" y="12" width="1" height="1"/>
<rect x="3" y="11" width="1" height="1"/>
<rect x="3" y="4" width="3" height="1"/>
<rect x="33" y="10" width="1" height="1"/>
<rect x="33" y="11" width="2" height="1"/>
<rect x="33" y="12" width="1" height="1"/>
<rect x="33" y="19" width="1" height="1"/>
<rect x="33" y="2" width="2" height="1"/>
<rect x="33" y="20" width="1" height="1"/>
<rect x="33" y="21" width="3" height="1"/>
<rect x="33" y="3" width="1" height="1"/>
<rect x="33" y="4" width="2" height="1"/>
<rect x="34" y="1" width="3" height="1"/>
<rect x="34" y="13" width="3" height="1"/>
<rect x="34" y="5" width="3" height="1"/>
<rect x="34" y="9" width="3" height="1"/>
<rect x="35" y="10" width="1" height="1"/>
<rect x="35" y="12" width="1" height="1"/>
<rect x="35" y="17" width="3" height="1"/>
<rect x="35" y="19" width="1" height="1"/>
<rect x="36" y="11" width="2" height="1"/>
<rect x="36" y="2" width="2" height="1"/>
<rect x="36" y="4" width="2" height="1"/>
<rect x="37" y="10" width="1" height="1"/>
<rect x="37" y="12" width="1" height="1"/>
<rect x="37" y="18" width="1" height="1"/>
<rect x="37" y="19" width="1" height="1"/>
<rect x="37" y="3" width="1" height="1"/>
<rect x="4" y="5" width="1" height="1"/>
<rect x="40" y="3" width="3" height="1"/>
<rect x="41" y="10" width="1" height="1"/>
<rect x="41" y="11" width="1" height="1"/>
<rect x="41" y="12" width="1" height="1"/>
<rect x="41" y="13" width="5" height="1"/>
<rect x="41" y="18" width="3" height="1"/>
<rect x="41" y="9" width="5" height="1"/>
<rect x="42" y="17" width="1" height="1"/>
<rect x="42" y="19" width="1" height="1"/>
<rect x="43" y="0" width="1" height="1"/>
<rect x="43" y="1" width="1" height="1"/>
<rect x="43" y="11" width="1" height="1"/>
<rect x="43" y="2" width="1" height="1"/>
<rect x="43" y="4" width="1" height="1"/>
<rect x="43" y="5" width="1" height="1"/>
<rect x="43" y="6" width="1" height="1"/>
<rect x="44" y="20" width="1" height="1"/>
<rect x="44" y="3" width="3" height="1"/>
<rect x="45" y="10" width="1" height="1"/>
<rect x="45" y="11" width="1" height="1"/>
<rect x="45" y="12" width="1" height="1"/>
<rect x="48" y="5" width="3" height="1"/>
<rect x="49" y="10" width="1" height="1"/>
<rect x="49" y="11" width="1" height="1"/>
<rect x="49" y="12" width="1" height="1"/>
<rect x="49" y="18" width="3" height="1"/>
<rect x="49" y="4" width="1" height="1"/>
<rect x="49" y="6" width="1" height="1"/>
<rect x="5" y="18" width="1" height="1"/>
<rect x="5" y="20" width="1" height="1"/>
<rect x="50" y="13" width="1" height="1"/>
<rect x="50" y="3" width="3" height="1"/>
<rect x="50" y="9" width="1" height="1"/>
<rect x="51" y="2" width="3" height="1"/>
<rect x="51" y="4" width="1" height="1"/>
<rect x="52" y="1" width="2" height="1"/>
<rect x="52" y="13" width="1" height="1"/>
<rect x="52" y="20" width="1" height="1"/>
<rect x="52" y="9" width="1" height="1"/>
<rect x="53" y="10" width="1" height="1"/>
<rect x="53" y="11" width="1" height="1"/>
<rect x="53" y="12" width="1" height="1"/>
<rect x="8" y="2" width="1" height="1"/>
<rect x="8" y="21" width="7" height="1"/>
<rect x="9" y="1" width="4" height="1"/>
<rect x="9" y="10" width="1" height="1"/>
<rect x="9" y="11" width="1" height="1"/>
<rect x="9" y="12" width="1" height="1"/>
</g>
<g fill="#ffffffff">
<rect x="0" y="0" width="7" height="1"/>
<rect x="0" y="1" width="1" height="1"/>
<rect x="0" y="2" width="1" height="1"/>
<rect x="0" y="3" width="1" height="1"/>
<rect x="0" y="4" width="1" height="1"/>
<rect x="0" y="5" width="2" height="1"/>
<rect x="0" y="6" width="1" height="1"/>
<rect x="1" y="17" width="1" height="1"/>
<rect x="1" y="21" width="1" height="1"/>
<rect x="10" y="11" width="1" height="1"/>
<rect x="10" y="18" width="1" height="1"/>
<rect x="11" y="17" width="1" height="1"/>
<rect x="11" y="4" width="1" height="1"/>
<rect x="11" y="6" width="1" height="1"/>
<rect x="12" y="11" width="1" height="1"/>
<rect x="12" y="18" width="1" height="1"/>
<rect x="12" y="3" width="1" height="1"/>
<rect x="13" y="1" width="1" height="1"/>
<rect x="13" y="2" width="1" height="1"/>
<rect x="14" y="10" width="1" height="1"/>
<rect x="14" y="11" width="1" height="1"/>
<rect x="14" y="12" width="1" height="1"/>
<rect x="16" y="12" width="1" height="1"/>
<rect x="16" y="13" width="1" height="1"/>
<rect x="16" y="18" width="5" height="1"/>
<rect x="16" y="8" width="7" height="1"/>
<rect x="17" y="1" width="4" height="1"/>
<rect x="17" y="11" width="1" height="1"/>
<rect x="17" y="14" width="2" height="1"/>
<rect x="17" y="2" width="3" height="1"/>
<rect x="17" y="3" width="4" height="1"/>
<rect x="17" y="4" width="1" height="1"/>
<rect x="17" y="9" width="1" height="1"/>
<rect x="18" y="10" width="1" height="1"/>
<rect x="18" y="13" width="1" height="1"/>
<rect x="19" y="12" width="2" height="1"/>
<rect x="19" y="4" width="3" height="1"/>
<rect x="2" y="14" width="3" height="1"/>
<rect x="2" y="16" width="3" height="1"/>
<rect x="2" y="22" width="3" height="1"/>
<rect x="2" y="4" width="1" height="1"/>
<rect x="2" y="8" width="3" height="1"/>
<rect x="20" y="16" width="3" height="1"/>
<rect x="20" y="19" width="1" height="1"/>
<rect x="20" y="20" width="1" height="1"/>
<rect x="20" y="21" width="1" height="1"/>
<rect x="20" y="22" width="1" height="1"/>
<rect x="20" y="5" width="1" height="1"/>
<rect x="21" y="13" width="2" height="1"/>
<rect x="22" y="10" width="1" height="1"/>
<rect x="22" y="11" width="1" height="1"/>
<rect x="22" y="12" width="1" height="1"/>
<rect x="22" y="14" width="1" height="1"/>
<rect x="22" y="17" width="1" height="1"/>
<rect x="22" y="18" width="1" height="1"/>
<rect x="22" y="9" width="1" height="1"/>
<rect x="24" y="0" width="7" height="1"/>
<rect x="24" y="1" width="1" height="1"/>
<rect x="24" y="10" width="1" height="1"/>
<rect x="24" y="11" width="1" height="1"/>
<rect x="24" y="12" width="1" height="1"/>
<rect x="24" y="13" width="2" height="1"/>
<rect x="24" y="14" width="1" height="1"/>
<rect x="24" y="2" width="1" height="1"/>
<rect x="24" y="3" width="1" height="1"/>
<rect x="24" y="4" width="1" height="1"/>
<rect x="24" y="5" width="2" height="1"/>
<rect x="24" y="6" width="1" height="1"/>
<rect x="24" y="8" width="7" height="1"/>
<rect x="24" y="9" width="1" height="1"/>
<rect x="26" y="12" width="1" height="1"/>
<rect x="26" y="17" width="1" height="1"/>
<rect x="26" y="2" width="1" height="1"/>
<rect x="26" y="21" width="1" height="1"/>
<rect x="26" y="4" width="1" height="1"/>
<rect x="27" y="13" width="1" height="1"/>
<rect x="27" y="16" width="1" height="1"/>
<rect x="27" y="19" width="1" height="1"/>
<rect x="27" y="22" width="1" height="1"/>
<rect x="27" y="5" width="1" height="1"/>
<rect x="28" y="10" width="1" height="1"/>
<rect x="28" y="12" width="1" height="1"/>
<rect x="28" y="14" width="1" height="1"/>
<rect x="28" y="17" width="1" height="1"/>
<rect x="28" y="2" width="1" height="1"/>
<rect x="28" y="21" width="1" height="1"/>
<rect x="28" y="6" width="1" height="1"/>
<rect x="29" y="1" width="1" height="1"/>
<rect x="29" y="11" width="1" height="1"/>
<rect x="29" y="13" width="1" height="1"/>
<rect x="29" y="3" width="1" height="1"/>
<rect x="29" y="5" width="1" height="1"/>
<rect x="29" y="9" width="1" height="1"/>
<rect x="3" y="10" width="1" height="1"/>
<rect x="3" y="12" width="1" height="1"/>
<rect x="3" y="5" width="1" height="1"/>
<rect x="30" y="12" width="1" height="1"/>
<rect x="30" y="4" width="1" height="1"/>
<rect x="32" y="10" width="1" height="1"/>
<rect x="32" y="11" width="1" height="1"/>
<rect x="32" y="12" width="1" height="1"/>
<rect x="32" y="2" width="1" height="1"/>
<rect x="32" y="20" width="1" height="1"/>
<rect x="32" y="21" width="1" height="1"/>
<rect x="32" y="22" width="3" height="1"/>
<rect x="32" y="3" width="1" height="1"/>
<rect x="32" y="4" width="1" height="1"/>
<rect x="33" y="13" width="1" height="1"/>
<rect x="33" y="9" width="1" height="1"/>
<rect x="34" y="0" width="3" height="1"/>
<rect x="34" y="10" width="1" height="1"/>
<rect x="34" y="12" width="1" height="1"/>
<rect x="34" y="14" width="3" height="1"/>
<rect x="34" y="20" width="1" height="1"/>
<rect x="34" y="3" width="3" height="1"/>
<rect x="34" y="6" width="3" height="1"/>
<rect x="34" y="8" width="3" height="1"/>
<rect x="35" y="11" width="1" height="1"/>
<rect x="35" y="2" width="1" height="1"/>
<rect x="35" y="4" width="1" height="1"/>
<rect x="36" y="10" width="1" height="1"/>
<rect x="36" y="12" width="1" height="1"/>
<rect x="36" y="16" width="3" height="1"/>
<rect x="36" y="18" width="1" height="1"/>
<rect x="37" y="13" width="1" height="1"/>
<rect x="37" y="9" width="1" height="1"/>
<rect x="38" y="10" width="1" height="1"/>
<rect x="38" y="11" width="1" height="1"/>
<rect x="38" y="12" width="1" height="1"/>
<rect x="38" y="17" width="1" height="1"/>
<rect x="38" y="18" width="1" height="1"/>
<rect x="38" y="2" width="1" height="1"/>
<rect x="38" y="3" width="1" height="1"/>
<rect x="38" y="4" width="1" height="1"/>
<rect x="4" y="2" width="1" height="1"/>
<rect x="4" y="6" width="1" height="1"/>
<rect x="40" y="10" width="1" height="1"/>
<rect x="40" y="11" width="1" height="1"/>
<rect x="40" y="12" width="1" height="1"/>
<rect x="40" y="13" width="1" height="1"/>
<rect x="40" y="14" width="7" height="1"/>
<rect x="40" y="17" width="2" height="1"/>
<rect x="40" y="18" width="1" height="1"/>
<rect x="40" y="19" width="2" height="1"/>
<rect x="40" y="2" width="1" height="1"/>
<rect x="40" y="4" width="1" height="1"/>
<rect x="40" y="8" width="7" height="1"/>
<rect x="40" y="9" width="1" height="1"/>
<rect x="41" y="1" width="1" height="1"/>
<rect x="41" y="16" width="3" height="1"/>
<rect x="41" y="20" width="3" height="1"/>
<rect x="41" y="5" width="1" height="1"/>
<rect x="42" y="0" width="1" height="1"/>
<rect x="42" y="10" width="3" height="1"/>
<rect x="42" y="11" width="1" height="1"/>
<rect x="42" y="12" width="3" height="1"/>
<rect x="42" y="2" width="1" height="1"/>
<rect x="42" y="4" width="1" height="1"/>
<rect x="42" y="6" width="1" height="1"/>
<rect x="43" y="17" width="2" height="1"/>
<rect x="43" y="19" width="2" height="1"/>
<rect x="43" y="3" width="1" height="1"/>
<rect x="44" y="0" width="1" height="1"/>
<rect x="44" y="11" width="1" height="1"/>
<rect x="44" y="18" width="1" height="1"/>
<rect x="44" y="2" width="1" height="1"/>
<rect x="44" y="4" width="1" height="1"/>
<rect x="44" y="6" width="1" height="1"/>
<rect x="45" y="1" width="1" height="1"/>
<rect x="45" y="21" width="1" height="1"/>
<rect x="45" y="5" width="1" height="1"/>
<rect x="46" y="10" width="1" height="1"/>
<rect x="46" y="11" width="1" height="1"/>
<rect x="46" y="12" width="1" height="1"/>
<rect x="46" y="13" width="1" height="1"/>
<rect x="46" y="2" width="1" height="1"/>
<rect x="46" y="4" width="1" height="1"/>
<rect x="46" y="9" width="1" height="1"/>
<rect x="48" y="10" width="1" height="1"/>
<rect x="48" y="11" width="1" height="1"/>
<rect x="48" y="12" width="1" height="1"/>
<rect x="48" y="17" width="5" height="1"/>
<rect x="48" y="18" width="1" height="1"/>
<rect x="48" y="19" width="5" height="1"/>
<rect x="48" y="4" width="1" height="1"/>
<rect x="48" y="6" width="1" height="1"/>
<rect x="49" y="13" width="1" height="1"/>
<rect x="49" y="16" width="3" height="1"/>
<rect x="49" y="20" width="3" height="1"/>
<rect x="49" y="3" width="1" height="1"/>
<rect x="49" y="9" width="1" height="1"/>
<rect x="5" y="1" width="1" height="1"/>
<rect x="5" y="17" width="1" height="1"/>
<rect x="5" y="21" width="1" height="1"/>
<rect x="5" y="3" width="1" height="1"/>
<rect x="5" y="5" width="1" height="1"/>
<rect x="50" y="2" width="1" height="1"/>
<rect x="50" y="4" width="1" height="1"/>
<rect x="50" y="6" width="1" height="1"/>
<rect x="51" y="1" width="1" height="1"/>
<rect x="51" y="5" width="1" height="1"/>
<rect x="52" y="0" width="2" height="1"/>
<rect x="52" y="18" width="1" height="1"/>
<rect x="52" y="4" width="1" height="1"/>
<rect x="53" y="13" width="1" height="1"/>
<rect x="53" y="21" width="1" height="1"/>
<rect x="53" y="3" width="1" height="1"/>
<rect x="53" y="9" width="1" height="1"/>
<rect x="54" y="1" width="1" height="1"/>
<rect x="54" y="10" width="1" height="1"/>
<rect x="54" y="11" width="1" height="1"/>
<rect x="54" y="12" width="1" height="1"/>
<rect x="54" y="2" width="1" height="1"/>
<rect x="6" y="4" width="1" height="1"/>
<rect x="8" y="1" width="1" height="1"/>
<rect x="8" y="10" width="1" height="1"/>
<rect x="8" y="11" width="1" height="1"/>
<rect x="8" y="12" width="1" height="1"/>
<rect x="8" y="20" width="7" height="1"/>
<rect x="9" y="0" width="4" height="1"/>
</g>
</svg>
